
<svg id="Layer_1" xmlns="http://www.w3.org/2000/svg" xmlns:xlink="http://www.w3.org/1999/xlink" viewBox="0 0 56.38 32.88" height="60" width="60">
<path d="M5.25,32.88c-1.21,0-2.03-0.23-2.74-0.64c-0.82-0.47-1.49-1.16-1.93-2C0.12,29.4,0,28.51,0,27.35V5.53
	c0-1.15,0.12-2.05,0.57-2.89c0.44-0.84,1.12-1.53,1.93-2C3.22,0.23,4.03,0,5.25,0h22.42c1.21,0,2.03,0.23,2.74,0.64
	c0.82,0.47,1.49,1.16,1.94,2c0.44,0.84,0.57,1.73,0.57,2.89v11.02c0,0.48-0.27,0.73-0.72,0.73c-0.45,0-0.69-0.25-0.75-0.73
	c-0.44-3.36-1.63-6.05-3.72-8.17c-2.37-2.4-5.73-3.88-9.71-3.88C9.99,4.49,4.51,10.48,4.51,18c0,3.79,1.39,7.19,3.8,9.63
	c2.05,2.08,4.78,3.43,8.15,3.79c0.66,0.07,0.88,0.33,0.88,0.76c0,0.2-0.06,0.38-0.19,0.5c-0.13,0.13-0.35,0.2-0.66,0.2H5.25
	L5.25,32.88z" fill="#fff"/>
</svg>
