<svg class="logo-text desktop-logo-text" version="1.1" id="Layer_1" xmlns="http://www.w3.org/2000/svg" x="0px" y="0px"
                        viewBox="0 0 56.3839378 32.8818893" fill="#FFFFFF" xml:space="preserve">
                        <g>
                            <path class="st0" d="M32.9125748,23.1960831h1.3803368c0.3562469,0,0.5629349-0.0936279,0.7175484-0.2517452
		c0.1689911-0.1736717,0.2579651-0.4242649,0.2579651-0.7152386c0-0.3205299-0.0846977-0.5621719-0.2595177-0.7237892
		c-0.2090149-0.1930866-0.4825172-0.2443657-0.8822632-0.2443657h-1.2140694V23.1960831L32.9125748,23.1960831z
		 M31.4576702,20.9485874c0-0.599865,0.2909851-0.8601646,0.8690586-0.8601646h2.1153641
		c0.7000656,0,1.2793083,0.155014,1.6853027,0.5322533c0.3826637,0.3558788,0.6110954,0.8908405,0.6110954,1.6064758
		c0,1.1748276-0.714447,2.1398811-2.1398354,2.1398811h-1.6860809v1.5672283c0,0.4390049-0.2793274,0.7350502-0.7264786,0.7350502
		c-0.4483204,0-0.728426-0.2960453-0.728426-0.7350502V20.9485874L31.4576702,20.9485874z" />
                            <path class="st0" d="M41.2267876,23.1960831h1.3803177c0.3562469,0,0.5629349-0.0936279,0.7171669-0.2517452
		c0.1693954-0.1736717,0.2583466-0.4242649,0.2583466-0.7152386c0-0.3205299-0.0850754-0.5621719-0.2595177-0.7237892
		c-0.2089958-0.1930866-0.4824982-0.2443657-0.8826599-0.2443657h-1.2136536V23.1960831L41.2267876,23.1960831z
		 M39.7714844,20.9485874c0-0.599865,0.2909889-0.8601646,0.8690567-0.8601646h2.1153717
		c0.700058,0,1.2797012,0.155014,1.6856766,0.5322533c0.3826637,0.3558788,0.610714,0.8908405,0.610714,1.6064758
		c0,1.1748276-0.714447,2.1398811-2.1394501,2.1398811h-1.6860657v1.5672283c0,0.4390049-0.2793274,0.7350502-0.7268753,0.7350502
		c-0.4479446,0-0.7284279-0.2960453-0.7284279-0.7350502V20.9485874L39.7714844,20.9485874z" />
                            <path class="st0" d="M55.2984848,24.1121655c0.722599-0.3473053,1.085453-1.0703201,1.085453-1.9067764
		c0-0.7156143-0.2284279-1.2288342-0.6110916-1.584713c-0.4059753-0.3772392-0.9852219-0.5322533-1.6853027-0.5322533h-2.1305046
		c-0.5780907,0-0.8694534,0.2602997-0.8694534,0.8601646v4.9856739c0,0.4390049,0.2804832,0.7350502,0.7288246,0.7350502
		c0.4471512,0,0.7264786-0.2960453,0.7264786-0.7350502v-1.6021957h1.3562469l1.0792236,1.9021206
		c0.1526833,0.2871132,0.3360596,0.4304695,0.6853256,0.4304695c0.2855339,0,0.6650963-0.1705494,0.6650963-0.6713352
		c0-0.134428-0.0575066-0.2750607-0.1250954-0.3865719C56.120163,25.4696159,55.6380234,24.6739578,55.2984848,24.1121655
		L55.2984848,24.1121655z M52.5428886,21.2609444h1.2292023c0.4405479,0,0.7062912,0.0815735,0.882267,0.2443657
		c0.1748199,0.1616173,0.2595215,0.3814983,0.2595215,0.7020302c0,0.2999229-0.0893555,0.5330296-0.2490196,0.6958027
		c-0.1794968,0.1826038-0.4436684,0.2579708-0.7766037,0.2579708h-1.3453674V21.2609444L52.5428886,21.2609444z" />
                            <path class="st1" d="M15.762351,20.7628822c-0.4961205-0.4658184-1.0995531-0.6744595-2.0319433-0.6744595h-1.8132019
		c-0.5190334,0-0.8287582,0.2051392-0.8287582,0.8589916v4.7988129c0,0.6538525,0.3097248,0.8589916,0.8287582,0.8589916h1.9413195
		c1.7117987,0,2.8111563-1.0652847,2.8111563-3.2043915C16.6696815,22.2131672,16.3563557,21.3203793,15.762351,20.7628822
		L15.762351,20.7628822z M14.7297134,24.9898148c-0.2419367,0.2595043-0.5877781,0.3900528-1.0730219,0.3900528h-1.1132383
		v-4.0657139h0.9325886c0.5301943,0,0.9011211,0.0730419,1.1968603,0.3760872
		c0.3316822,0.3395462,0.5216637,0.907547,0.5216637,1.7175674C15.1945658,24.0970268,15.0406103,24.6564751,14.7297134,24.9898148
		L14.7297134,24.9898148z" />
                            <path class="st0" d="M27.8014297,25.4657192c-0.0708923-0.2070713-1.3236065-3.7820816-1.523571-4.3563099
		c-0.1245174-0.3578072-0.2379551-0.5691528-0.3932648-0.7276688c-0.2207489-0.2253304-0.5015507-0.2940941-0.7799053-0.2940941
		c-0.3320599,0-0.5852718,0.1087856-0.7764053,0.2871132c-0.1754971,0.1635666-0.2937088,0.3962765-0.3894653,0.6655083
		c-0.1839504,0.5163231-1.5625362,4.2646084-1.6217709,4.4254513c-0.0695362,0.1892071-0.1400528,0.4044323-0.1400528,0.5563431
		c0,0.3873463,0.2764053,0.6336632,0.6736488,0.6336632c0.3193493,0,0.5334949-0.1418076,0.6390762-0.4510593
		c0.0545807-0.157341,0.193182-0.5609989,0.3712063-1.079668h2.3838158
		c0.1191654,0.3519993,0.2396851,0.7078571,0.3590508,1.0614071c0.1008282,0.2707825,0.2806034,0.4693203,0.6582127,0.4693203
		c0.3694763,0,0.6811275-0.281683,0.6811275-0.6336632C27.9431324,25.8619957,27.8723412,25.6728096,27.8014297,25.4657192
		L27.8014297,25.4657192z M24.2500935,23.9894142c0.2863293-0.8360767,0.5921745-1.7307949,0.8076935-2.3632832
		c0.2009373,0.5924664,0.4859962,1.4316463,0.8019447,2.3632832H24.2500935L24.2500935,23.9894142z" />
                            <path class="st0" d="M38.8192863,25.9342613c0,0.4390049-0.2793312,0.7350502-0.7265015,0.7350502
		c-0.4483223,0-0.7288055-0.2960453-0.7288055-0.7350502v-5.1107903c0-0.4390049,0.2804832-0.7350483,0.7288055-0.7350483
		c0.4471703,0,0.7265015,0.2960434,0.7265015,0.7350483V25.9342613L38.8192863,25.9342613z" />
                            <path class="st0" d="M18.1758633,26.6055984c-0.5190144,0-0.8395386-0.2055187-0.8395386-0.8593712v-4.9227562
		c0-0.4390049,0.2804031-0.7350483,0.7286263-0.7350483c0.4471703,0,0.7265015,0.2960434,0.7265015,0.7350483v4.5598965h2.246664
		c0.2708759,0,0.4632835,0.050108,0.5911007,0.1806545c0.1012058,0.1033363,0.1474323,0.2478676,0.1474323,0.4261951
		c0,0.176754-0.0450745,0.3216648-0.1440315,0.4265709c-0.1174355,0.1243229-0.310318,0.1888103-0.5945015,0.1888103H18.1758633
		L18.1758633,26.6055984z" />
                            <path class="st0" d="M46.5080032,26.6055984c-0.5190353,0-0.8395386-0.2055187-0.8395386-0.8593712v-4.7988129
		c0-0.6538525,0.3403168-0.8589916,0.8601265-0.8589916h3.0644493c0.2703934,0,0.4630775,0.0505028,0.5908966,0.1810513
		c0.1014061,0.1029568,0.1472588,0.2474689,0.1472588,0.4261932c0,0.1763783-0.0450783,0.3216858-0.1437569,0.4261761
		c-0.1177139,0.1247196-0.3103981,0.1876545-0.5943985,0.1876545h-2.4692688v1.442131h2.1363297
		c0.2661209,0,0.4677544,0.051281,0.5893478,0.1686211c0.1048851,0.1006107,0.1522865,0.2443657,0.1522865,0.4265709
		c0,0.1802559-0.0466232,0.3232365-0.1487846,0.4242458c-0.1111107,0.1091633-0.300312,0.1728745-0.5975037,0.1728745h-2.1316757
		v1.4398041h2.5376511c0.2707748,0,0.4630814,0.0505047,0.5909004,0.1810532
		c0.1013832,0.1029587,0.1476288,0.2474689,0.1476288,0.4261932c0,0.1767559-0.0450706,0.3216648-0.1441269,0.4265728
		c-0.1173401,0.124321-0.3100243,0.1880341-0.5944023,0.1880341H46.5080032L46.5080032,26.6055984z" />
                        </g>
                    </svg>